<?xml version="1.0" encoding="UTF-8" standalone="no"?>
<!-- Created with Inkscape (http://www.inkscape.org/) -->

<svg
   width="1cm"
   height="1cm"
   viewBox="0 0 10 10"
   version="1.1"
   id="svg1"
   sodipodi:docname="bitmap1.svg"
   inkscape:export-filename="bitmap2.png"
   inkscape:export-xdpi="96"
   inkscape:export-ydpi="96"
   xml:space="preserve"
   inkscape:version="1.3 (0e150ed, 2023-07-21)"
   xmlns:inkscape="http://www.inkscape.org/namespaces/inkscape"
   xmlns:sodipodi="http://sodipodi.sourceforge.net/DTD/sodipodi-0.dtd"
   xmlns="http://www.w3.org/2000/svg"
   xmlns:svg="http://www.w3.org/2000/svg"><sodipodi:namedview
     id="namedview1"
     pagecolor="#ffffff"
     bordercolor="#000000"
     borderopacity="0.25"
     inkscape:showpageshadow="2"
     inkscape:pageopacity="0.0"
     inkscape:pagecheckerboard="0"
     inkscape:deskcolor="#d1d1d1"
     inkscape:document-units="mm"
     inkscape:zoom="13.146882"
     inkscape:cx="17.266451"
     inkscape:cy="20.004743"
     inkscape:window-width="1352"
     inkscape:window-height="815"
     inkscape:window-x="0"
     inkscape:window-y="35"
     inkscape:window-maximized="0"
     inkscape:current-layer="layer1" /><defs
     id="defs1" /><g
     inkscape:label="Layer 1"
     inkscape:groupmode="layer"
     id="layer1"><path
       style="fill:none;stroke:#000000;stroke-width:0.1;stroke-dasharray:none"
       d="m 2.1660366,3.0810005 c 0.8776185,0 1.8112548,-1.1390367 2.5768366,-1.1203639 0.8026888,0.019578 1.7796776,1.1181935 2.3398594,1.1067162"
       id="path5"
       sodipodi:nodetypes="csc" /><path
       style="fill:none;stroke:#000000;stroke-width:0.1;stroke-dasharray:none"
       d="m 2.2183501,5.0722542 c 0.8776185,0 1.7409046,1.1691868 2.5064864,1.150514 C 5.5275253,6.2031902 6.5396893,5.1095997 7.1149461,5.121077"
       id="path5-2"
       sodipodi:nodetypes="csc" /><path
       style="fill:none;stroke:#000000;stroke-width:0.1;stroke-dasharray:none"
       d="m 2.1746593,3.0731208 c 0.7842547,0 1.1677593,1.6137343 1.7652866,1.6137343 0.4481457,0 0.9523092,-1.1390366 1.3631093,-1.1390366 0.4481456,0 1.1505138,1.5799867 1.7968639,1.572107"
       id="path6"
       sodipodi:nodetypes="cssc" /><path
       style="fill:none;stroke:#000000;stroke-width:0.1;stroke-dasharray:none"
       d="m 2.2223728,5.0735897 c 0.8194298,-0.0201 1.1577093,-1.5584592 1.7552366,-1.5584592 0.4481457,0 0.9523092,1.1390366 1.3631093,1.1390366 0.4481456,0 1.1203637,-1.5850117 1.7365637,-1.587182"
       id="path6-7"
       sodipodi:nodetypes="cssc" /></g></svg>
