<?xml version="1.0" encoding="UTF-8" standalone="no"?>
<!-- Created with Inkscape (http://www.inkscape.org/) -->

<svg
   width="10mm"
   height="10mm"
   viewBox="0 0 10 10"
   version="1.1"
   id="svg1"
   inkscape:export-filename="bitmap5.svg"
   inkscape:export-xdpi="96"
   inkscape:export-ydpi="96"
   inkscape:version="1.3 (0e150ed, 2023-07-21)"
   sodipodi:docname="drawing.svg"
   xmlns:inkscape="http://www.inkscape.org/namespaces/inkscape"
   xmlns:sodipodi="http://sodipodi.sourceforge.net/DTD/sodipodi-0.dtd"
   xmlns="http://www.w3.org/2000/svg"
   xmlns:svg="http://www.w3.org/2000/svg">
  <sodipodi:namedview
     id="namedview1"
     pagecolor="#ffffff"
     bordercolor="#000000"
     borderopacity="0.25"
     inkscape:showpageshadow="2"
     inkscape:pageopacity="0.0"
     inkscape:pagecheckerboard="0"
     inkscape:deskcolor="#d1d1d1"
     inkscape:document-units="mm"
     inkscape:zoom="12.194804"
     inkscape:cx="14.350374"
     inkscape:cy="23.452611"
     inkscape:window-width="1352"
     inkscape:window-height="815"
     inkscape:window-x="0"
     inkscape:window-y="35"
     inkscape:window-maximized="1"
     inkscape:current-layer="layer1" />
  <defs
     id="defs1" />
  <g
     inkscape:label="Layer 1"
     inkscape:groupmode="layer"
     id="layer1">
    <path
       style="fill:none;stroke:#000000;stroke-width:0.1"
       d="M 1.1933019,5.4891889 C 2.0394615,5.4674931 2.1479434,4.5128508 2.7988355,4.469458 3.4497274,4.4260653 2.9290137,5.4457959 3.6232986,5.4240996"
       id="path2" />
    <path
       style="fill:none;stroke:#000000;stroke-width:0.1"
       d="m 1.1716055,5.5759743 c 0.8895523,0 1.0197307,1.5838371 1.7357118,1.5621408 0.7159813,-0.021696 2.4135106,-4.841222 3.4714238,-2.9507102 1.2310673,2.1999416 1.1716057,-1.1065163 1.844194,-1.1282126"
       id="path3"
       sodipodi:nodetypes="cssc" />
    <path
       style="fill:none;stroke:#000000;stroke-width:0.1"
       d="M 8.2880244,2.9724067 C 6.9428475,2.9507103 6.378741,1.1933019 5.2505283,1.2149983 4.1223156,1.2366947 2.0394614,4.144012 1.1933019,4.144012"
       id="path4"
       sodipodi:nodetypes="csc" />
    <path
       style="fill:none;stroke:#000000;stroke-width:0.1"
       d="m 1.1716055,4.1223157 c 1.1282127,0 0.8461595,1.3885696 1.3234803,1.4102659 0.4773209,0.021696 0.976338,-1.0197308 1.2800876,-1.0197308 0.3037496,0 1.4970513,0.9329452 2.2781217,0.9329452"
       id="path5"
       sodipodi:nodetypes="cssc" />
    <path
       style="fill:none;stroke:#000000;stroke-width:0.1"
       d="M 6.096688,5.4674925 C 5.1854392,5.4457967 4.5562437,6.704187 3.6232986,6.704187"
       id="path6"
       sodipodi:nodetypes="cc" />
    <path
       style="fill:none;stroke:#000000;stroke-width:0.1"
       d="m 3.5799058,6.7258834 c 1.149909,0 0.7593738,1.1499093 1.4536587,1.1499093 0.6942847,0 0.2820532,-1.1282127 0.9546415,-1.1499093"
       id="path7"
       sodipodi:nodetypes="csc" />
    <path
       style="fill:none;stroke:#000000;stroke-width:0.1"
       d="m 6.0099022,6.7258836 c -1.0414269,0 -1.7357116,-1.2800876 -2.3432108,-1.2800876"
       id="path8"
       sodipodi:nodetypes="cc" />
  </g>
</svg>
